<svg xmlns="http://www.w3.org/2000/svg"  width="512" height="512" viewBox="0 0 512 512">
  <style>
    path {
      fill: #000;
    }
    @media (prefers-color-scheme: dark) {
      path {
        fill: #fff;
      }
    }
  </style>
  <path fill-rule="evenodd" d="M497.293,14.316C488.823,6.626,476.008,3,458.844,3h-38.551h-71.398H164.177H91.009H54.228
	C37.059,3,24.244,6.626,15.78,14.316c-8.47,7.696-12.7,17.627-12.7,30.023c0,12.174,4.35,22.266,13.049,29.957
	C24.826,81.991,37.526,86,54.228,86h26.283c3.304,0,6.795,0,10.498,0H204v363.086c0,20.681,4.836,36.131,14.488,46.356
	c9.647,10.226,22.157,15.339,37.505,15.339c15.113,0,27.302-5.06,36.841-15.168C302.367,485.504,307,469.995,307,449.086V86h113.293
	c3.701,0,7.196,0,10.511,0h28.04c17.397,0,30.272-4.064,38.622-11.759c8.351-7.691,12.527-17.617,12.527-29.791
	C509.993,32.054,505.758,22.011,497.293,14.316z"/>
</svg>
