<svg xmlns="http://www.w3.org/2000/svg"  width="512" height="512" viewBox="0 0 512 512">
  <style>
    path {
      fill: #33f;
    }
		#back01 {
			fill: #aaf;
		}
    @media (prefers-color-scheme: dark) {
      path {
        fill: #ddf;
      }
			#back01 {
				fill: #225;
			}
    }
  </style>
<path d="M460.801-1H51.2C22.417-1-1,24.969-1,56.889v85.333c0,31.921,23.217,57.89,52,57.89s52-25.969,52-57.89V128
	c0-7.29,5.693-13,12.2-13h76.801c6.507,0,11.999,5.71,11.999,13v256c0,7.291-5.492,13-11.999,13h-12.8
	C150.417,397,127,423.08,127,455.001C127,486.92,150.417,513,179.201,513h153.6c28.783,0,52.2-26.08,52.2-57.999
	c0-31.921-23.417-58.001-52.2-58.001h-12.8c-6.507,0-12.001-5.709-12.001-13V128c0-7.29,5.494-13,12.001-13h76.801
	c6.507,0,12.198,5.71,12.198,13v14.222c0,31.921,23.217,57.89,52,57.89s52-25.969,52-57.89V56.889C513,24.969,489.584-1,460.801-1z"
	/>
</svg>
